<svg width="43" height="24" viewBox="0 0 43 24" fill="none" xmlns="http://www.w3.org/2000/svg">
<path d="M20.6427 7.9749H24.3999L18.9218 22.5059H16.5413L13.1283 13.8454L9.85862 22.5059H7.50677L2 7.9749H5.58514L8.85478 16.2285L11.9523 7.9749H14.3042L17.5738 16.2285L20.6427 7.9749Z" fill="white"/>
<path d="M33.1701 19.5416C35.5506 19.5416 37.6156 17.6816 37.6156 15.1823C37.6156 12.7992 35.7227 10.9102 33.3421 10.9102C30.7609 10.9102 28.8966 12.7992 28.8966 15.1823C28.8966 17.6816 30.9329 19.5416 33.1701 19.5416ZM25.4835 15.1823V1H28.8966V8.8177C30.2446 7.9749 31.6213 7.42272 33.3421 7.42272C37.6156 7.42272 41 10.9102 41 15.1823C41 19.5416 37.4435 23 33.1701 23C29.04 23 25.4835 19.5416 25.4835 15.1823Z" fill="white"/>
</svg>
